<?xml version="1.0" encoding="utf-8"?>
<!-- Generator: Adobe Illustrator 22.1.0, SVG Export Plug-In . SVG Version: 6.00 Build 0)  -->
<svg version="1.1" id="Calque_1" xmlns="http://www.w3.org/2000/svg" xmlns:xlink="http://www.w3.org/1999/xlink" x="0px" y="0px"
	 viewBox="0 0 1015.6 372.1" style="enable-background:new 0 0 1015.6 372.1;" xml:space="preserve">
<style type="text/css">
	.st0{fill:#040505;}
	.st1{enable-background:new    ;}
	.st2{fill:#FFFFFF;}
</style>
<title>logo</title>
<rect class="st0" width="1015.6" height="207.2"/>
<g class="st1">
	<path class="st2" d="M14.2,161.7L53.6,51.3h44.2l38.6,110.5H93.7l-3.5-13.9h-30l-3.4,13.9H14.2z M66.9,121.6h16.5L80,109.1
		c-1.7-6.3-2.8-11.2-3.4-14.6c-0.6-3.4-1-6.6-1.1-9.7h-0.7c-0.2,3-0.5,6.2-1.1,9.7c-0.6,3.4-1.7,8.3-3.4,14.6L66.9,121.6z"/>
	<path class="st2" d="M142.6,161.7V51.3h39.8v74.6h38.6v35.8H142.6z"/>
	<path class="st2" d="M233.1,161.7V51.3H307v30H272v10.6h31.7v28.3H272v11.6h35.8v30H233.1z"/>
	<path class="st2" d="M372.4,136.7c-1.1-2.3-1.8-4.1-2.4-5.5c-0.5-1.4-0.9-2.6-1.2-3.7c-0.2,1.1-0.6,2.2-1.1,3.5
		c-0.5,1.3-1.4,3.2-2.6,5.7l-12.5,25h-45.4l39.2-58.8l-34.6-51.6h45.3l8.1,18c0.1,0.2,0.3,0.5,0.5,1c1.5,3.4,2.5,6.1,3.1,8.1
		c0.4-1.3,0.8-2.7,1.3-4c0.5-1.4,1.2-3.1,2.1-5.1l8.4-18h45.1l-34.5,51.6l39.2,58.8h-45.4L372.4,136.7z"/>
	<path class="st2" d="M419.9,161.7l39.4-110.5h44.2l38.6,110.5h-42.7l-3.5-13.9h-30l-3.4,13.9H419.9z M472.6,121.6h16.5l-3.4-12.5
		c-1.7-6.3-2.8-11.2-3.4-14.6c-0.6-3.4-1-6.6-1.1-9.7h-0.7c-0.2,3-0.5,6.2-1.1,9.7c-0.6,3.4-1.7,8.3-3.4,14.6L472.6,121.6z"/>
	<path class="st2" d="M548.2,161.7V51.3h38.9l34.3,57.8c-0.5-2.6-0.8-5.4-0.9-8.5c-0.2-3.1-0.3-7.2-0.3-12.2v-37h38.3v110.5h-39.2
		l-34-57.3c0.4,2.5,0.7,5.1,0.9,8c0.2,2.8,0.3,6,0.3,9.5v39.8H548.2z"/>
	<path class="st2" d="M678.8,161.7V51.3H711c10.2,0,18.9,0.6,26.1,1.7s13.1,2.9,17.6,5.2c9.6,5,16.9,11.7,22,20
		c5.1,8.3,7.7,17.8,7.7,28.4c0,10.6-2.5,20-7.6,28.2c-5.1,8.2-12.4,14.9-22,20c-4.7,2.4-10.6,4.2-17.8,5.3
		c-7.2,1.1-16.8,1.7-28.9,1.7H678.8z M718.2,128c9,0,15.5-1.8,19.6-5.2c4.1-3.4,6.2-8.8,6.2-16.2c0-7.2-2-12.5-5.9-16.1
		c-3.9-3.5-10-5.3-18.1-5.3h-1.7V128z"/>
	<path class="st2" d="M801.1,161.7V51.3H851c14.5,0,25.6,3.2,33.2,9.6c7.6,6.4,11.5,15.6,11.5,27.6c0,7.8-1.9,14.3-5.8,19.4
		c-3.8,5.1-9,8-15.6,8.9l29.5,45h-44.5L840,125.3v36.4H801.1z M840,79.7v21.6h6.2c3.8,0,6.7-0.9,8.7-2.8c2-1.8,3.1-4.5,3.1-7.9
		c0-3.5-1-6.2-3.1-8.1c-2-1.9-4.9-2.8-8.7-2.8H840z"/>
	<path class="st2" d="M911.7,161.7V51.3h73.9v30h-34.9v10.6h31.7v28.3h-31.7v11.6h35.8v30H911.7z"/>
</g>
<g class="st1">
	<path class="st0" d="M267,277.7c-2.4-2.1-4.9-3.7-7.4-4.8c-2.5-1.1-5.2-1.6-8-1.6c-4.6,0-8.2,1.2-11,3.7c-2.7,2.4-4.1,5.7-4.1,9.7
		c0,3.9,1.3,7,4,9.5c2.7,2.4,6.1,3.7,10.3,3.7c2.7,0,5.3-0.6,8-1.8c2.7-1.2,5.4-2.9,8.1-5.2v37.2c-4.7,2.3-9.3,4-13.6,5.1
		c-4.4,1.1-8.7,1.6-12.9,1.6c-6.9,0-13.4-1.2-19.3-3.5c-5.9-2.3-11.2-5.8-15.8-10.3c-4.8-4.8-8.5-10.3-11.1-16.4
		c-2.5-6.1-3.8-12.6-3.8-19.5c0-4.8,0.6-9.4,1.9-13.9c1.2-4.5,3.1-8.8,5.6-12.8c4.7-7.7,10.7-13.5,18-17.6
		c7.3-4.1,15.4-6.1,24.5-6.1c4,0,8.2,0.4,12.6,1.3c4.4,0.8,9,2.1,14,3.9V277.7z"/>
	<path class="st0" d="M282.2,331.4V190.9H327v38.8c0,5.3-0.1,9.5-0.2,12.4c-0.1,3-0.3,5.8-0.5,8.5c3.9-5.4,8.3-9.4,13-12
		c4.8-2.6,10.1-3.9,16.1-3.9c10,0,17.9,3,23.7,9.1c5.8,6,8.7,14.3,8.7,24.7v62.9h-45.7v-47.3c0-4.7-0.5-7.9-1.4-9.7
		c-0.9-1.7-2.6-2.6-4.9-2.6c-2.7,0-4.7,1-6.1,3.1c-1.4,2.1-2.1,5.1-2.1,9.2v47.3H282.2z"/>
	<path class="st0" d="M471.6,331.4v-14.1c-4.5,6-9.3,10.5-14.2,13.4c-5,2.9-10.4,4.3-16.4,4.3c-10.9,0-19.9-4.6-27-13.9
		c-7.2-9.2-10.7-21.1-10.7-35.7c0-15.2,3.5-27.5,10.5-36.7c7-9.3,16.1-13.9,27.3-13.9c5.8,0,11.1,1.3,15.8,3.8
		c4.7,2.5,9.1,6.4,13.2,11.6v-12.4h43.6v93.7H471.6z M446.7,284.3c0,4,1.1,7.2,3.2,9.7c2.1,2.4,5,3.7,8.5,3.7c3.6,0,6.4-1.2,8.5-3.6
		c2.1-2.4,3.2-5.6,3.2-9.7c0-4.1-1.1-7.4-3.2-9.9c-2.1-2.5-5-3.7-8.5-3.7c-3.5,0-6.3,1.3-8.5,3.8
		C447.8,276.9,446.7,280.2,446.7,284.3z"/>
	<path class="st0" d="M532.3,190.9h44.6v43.6c0,3.8-0.1,7-0.2,9.7c-0.2,2.7-0.4,4.9-0.7,6.8c3.7-5.4,8-9.4,12.8-12.1
		c4.8-2.7,10.1-4,15.9-4c11,0,20.1,4.6,27.2,13.8c7.1,9.2,10.7,21.1,10.7,35.6c0,15.3-3.5,27.5-10.4,36.8
		c-6.9,9.2-16.1,13.9-27.5,13.9c-6.2,0-11.8-1.4-16.8-4.3c-5-2.9-9.5-7.2-13.5-13v13.8h-42.1V190.9z M599,284.8
		c0-4.1-1.1-7.4-3.2-9.9c-2.1-2.5-5-3.7-8.5-3.7c-3.5,0-6.3,1.2-8.5,3.7c-2.1,2.5-3.2,5.8-3.2,9.9c0,4.1,1.1,7.5,3.2,10.1
		c2.1,2.6,5,3.9,8.5,3.9c3.4,0,6.3-1.3,8.4-3.9C597.9,292.3,599,288.9,599,284.8z"/>
	<path class="st0" d="M764,292l-64.6,0.1v1.4c0,4.8,0.9,8.3,2.6,10.6c1.7,2.3,4.3,3.5,7.8,3.5c2.1,0,4-0.6,5.5-1.9
		c1.6-1.2,2.8-3,3.7-5.4l42.1,2.8c-3.7,10.1-10,18-19,23.5c-9,5.5-20,8.2-33.1,8.2c-7.2,0-14-1.1-20.3-3.3c-6.3-2.2-12-5.4-17-9.7
		c-5.6-4.9-9.9-10.5-13-16.9c-3-6.4-4.5-13.1-4.5-20.2c0-7.1,1.5-13.9,4.6-20.3c3-6.4,7.4-12,12.9-16.8c5-4.3,10.7-7.5,16.9-9.7
		c6.3-2.2,13.1-3.3,20.4-3.3c10,0,19,2,27,6c8,4,14.6,9.9,19.9,17.5c2.7,3.9,4.8,8.3,6.1,13c1.4,4.7,2,9.9,2,15.5c0,1.4,0,2.5,0,3.3
		C764.1,290.8,764,291.4,764,292z M699.7,271.6l20.6,0.1c-0.2-3.7-1.1-6.4-2.8-8.2c-1.7-1.8-4.1-2.6-7.4-2.6c-2.9,0-5.2,0.9-7,2.8
		C701.4,265.5,700.2,268.1,699.7,271.6z"/>
	<path class="st0" d="M843,331.4v-14.1c-4.5,6-9.3,10.5-14.2,13.4c-5,2.9-10.4,4.3-16.4,4.3c-10.9,0-19.9-4.6-27-13.9
		c-7.2-9.2-10.7-21.1-10.7-35.7c0-15.2,3.5-27.5,10.5-36.7c7-9.3,16.1-13.9,27.3-13.9c5.8,0,11.1,1.3,15.8,3.8
		c4.7,2.5,9.1,6.4,13.2,11.6v-12.4H885v93.7H843z M818.2,284.3c0,4,1.1,7.2,3.2,9.7c2.1,2.4,5,3.7,8.5,3.7c3.6,0,6.4-1.2,8.5-3.6
		c2.1-2.4,3.2-5.6,3.2-9.7c0-4.1-1.1-7.4-3.2-9.9c-2.1-2.5-5-3.7-8.5-3.7c-3.5,0-6.3,1.3-8.5,3.8
		C819.2,276.9,818.2,280.2,818.2,284.3z"/>
	<path class="st0" d="M902.8,237.7h44.8v45.9c0,6.6,0.5,10.8,1.6,12.7c1.1,1.9,3,2.9,5.8,2.9c2.7,0,4.6-0.9,5.7-2.7
		c1.1-1.8,1.6-6.1,1.6-12.9v-45.9h44.7v50.5c0,16.2-4.2,28-12.5,35.5c-8.3,7.5-21.5,11.2-39.5,11.2c-18.1,0-31.3-3.7-39.6-11.2
		c-8.4-7.5-12.5-19.3-12.5-35.5V237.7z"/>
</g>
</svg>
